<svg width="900" height="900" viewBox="0 0 900 900" fill="none" xmlns="http://www.w3.org/2000/svg">
<path fill-rule="evenodd" clip-rule="evenodd" d="M335.5 277.5C359.5 269.833 416 254.5 450 254.5C484 254.5 540.5 269.833 564.5 277.5C628.9 287.5 658.333 275.667 665 268.5C667 238.9 611.833 194.5 584 176V170C670 181.5 740 245 751 293C759.8 331.4 720 365 699 377C768.6 399.8 820 461.833 837 490C721.4 557.2 633.167 505.333 603.5 471C607.1 542.6 578.667 582.833 564 594C567.5 597 583 630.5 579 646C575.8 658.4 567.667 667.167 564 670L541 674C538.2 722 479.167 730.667 450 729C420.833 730.667 361.8 722 359 674L336 670C332.333 667.167 324.2 658.4 321 646C317 630.5 332.5 597 336 594C321.333 582.833 292.9 542.6 296.5 471C266.833 505.333 178.6 557.2 63 490C80 461.833 131.4 399.8 201 377C180 365 140.2 331.4 149 293C160 245 230 181.5 316 170V176C288.167 194.5 233 238.9 235 268.5C241.667 275.667 271.1 287.5 335.5 277.5Z" fill="current"/>
<path d="M335.5 277.5L335.577 277.994L335.615 277.988L335.652 277.976L335.5 277.5ZM564.5 277.5L564.348 277.976L564.385 277.988L564.423 277.994L564.5 277.5ZM665 268.5L665.366 268.841L665.487 268.711L665.499 268.534L665 268.5ZM584 176H583.5V176.268L583.723 176.416L584 176ZM584 170L584.066 169.504L583.5 169.429V170H584ZM751 293L751.487 292.888L751.487 292.888L751 293ZM699 377L698.752 376.566L697.774 377.125L698.844 377.475L699 377ZM837 490L837.251 490.432L837.691 490.177L837.428 489.742L837 490ZM603.5 471L603.878 470.673L602.928 469.573L603.001 471.025L603.5 471ZM564 594L563.697 593.602L563.205 593.977L563.675 594.38L564 594ZM579 646L579.484 646.125L579.484 646.125L579 646ZM564 670L564.086 670.493L564.208 670.471L564.306 670.396L564 670ZM541 674L540.914 673.507L540.524 673.575L540.501 673.971L541 674ZM450 729L450.029 728.501L450 728.499L449.971 728.501L450 729ZM359 674L359.499 673.971L359.476 673.575L359.086 673.507L359 674ZM336 670L335.694 670.396L335.792 670.471L335.914 670.493L336 670ZM321 646L320.516 646.125L320.516 646.125L321 646ZM336 594L336.325 594.38L336.795 593.977L336.303 593.602L336 594ZM296.5 471L296.999 471.025L297.072 469.573L296.122 470.673L296.5 471ZM63 490L62.5719 489.742L62.3093 490.177L62.7487 490.432L63 490ZM201 377L201.156 377.475L202.226 377.125L201.248 376.566L201 377ZM149 293L148.513 292.888L148.513 292.888L149 293ZM316 170H316.5V169.429L315.934 169.504L316 170ZM316 176L316.277 176.416L316.5 176.268V176H316ZM235 268.5L234.501 268.534L234.513 268.711L234.634 268.841L235 268.5ZM450 254.5V254C432.942 254 410.273 257.844 388.891 262.637C367.5 267.432 347.361 273.186 335.348 277.024L335.5 277.5L335.652 277.976C347.639 274.147 367.75 268.401 389.109 263.613C410.477 258.823 433.058 255 450 255V254.5ZM450 254.5V255C466.942 255 489.523 258.823 510.891 263.613C532.25 268.401 552.361 274.147 564.348 277.976L564.5 277.5L564.652 277.024C552.639 273.186 532.5 267.432 511.109 262.637C489.727 257.844 467.058 254 450 254V254.5ZM564.5 277.5L564.423 277.994C596.662 283 620.175 282.545 636.479 279.931C644.631 278.624 650.987 276.776 655.733 274.797C660.471 272.822 663.632 270.705 665.366 268.841L665 268.5L664.634 268.159C663.035 269.879 660.017 271.928 655.348 273.874C650.688 275.818 644.41 277.647 636.321 278.944C620.142 281.538 596.738 282 564.577 277.006L564.5 277.5ZM665 268.5L665.499 268.534C666.009 260.98 662.874 252.547 657.527 243.898C652.174 235.239 644.567 226.306 636.042 217.735C618.991 200.592 598.213 184.847 584.277 175.584L584 176L583.723 176.416C597.62 185.653 618.342 201.358 635.333 218.44C643.829 226.982 651.378 235.855 656.676 244.424C661.98 253.003 664.991 261.22 664.501 268.466L665 268.5ZM584 176H584.5V170H584H583.5V176H584ZM584 170L583.934 170.496C626.834 176.232 665.752 194.941 695.316 218.205C724.893 241.48 745.048 269.266 750.513 293.112L751 293L751.487 292.888C745.952 268.734 725.607 240.77 695.934 217.42C666.248 194.059 627.166 175.268 584.066 169.504L584 170ZM751 293L750.513 293.112C754.865 312.104 747.21 329.951 735.781 344.592C724.354 359.231 709.208 370.591 698.752 376.566L699 377L699.248 377.434C709.792 371.409 725.046 359.969 736.569 345.208C748.09 330.449 755.935 312.296 751.487 292.888L751 293ZM699 377L698.844 377.475C768.286 400.223 819.604 462.145 836.572 490.258L837 490L837.428 489.742C820.396 461.522 768.914 399.377 699.156 376.525L699 377ZM837 490L836.749 489.568C721.394 556.625 633.418 504.859 603.878 470.673L603.5 471L603.122 471.327C632.916 505.808 721.406 557.775 837.251 490.432L837 490ZM603.5 471L603.001 471.025C606.594 542.492 578.209 582.553 563.697 593.602L564 594L564.303 594.398C579.124 583.113 607.606 542.708 603.999 470.975L603.5 471ZM564 594L563.675 594.38C564.044 594.696 564.633 595.482 565.386 596.72C566.128 597.937 566.997 599.539 567.935 601.433C569.809 605.22 571.942 610.155 573.842 615.48C575.742 620.807 577.405 626.513 578.344 631.845C579.284 637.186 579.489 642.103 578.516 645.875L579 646L579.484 646.125C580.511 642.147 580.278 637.064 579.328 631.671C578.377 626.268 576.696 620.505 574.783 615.145C572.871 609.783 570.723 604.812 568.831 600.989C567.885 599.078 567.001 597.449 566.241 596.2C565.492 594.971 564.831 594.054 564.325 593.62L564 594ZM579 646L578.516 645.875C575.349 658.147 567.292 666.824 563.694 669.604L564 670L564.306 670.396C568.042 667.509 576.251 658.653 579.484 646.125L579 646ZM564 670L563.914 669.507L540.914 673.507L541 674L541.086 674.493L564.086 670.493L564 670ZM541 674L540.501 673.971C539.116 697.717 523.84 711.751 505.192 719.665C486.529 727.584 464.562 729.331 450.029 728.501L450 729L449.971 729.499C464.605 730.335 486.737 728.582 505.583 720.585C524.443 712.582 540.084 698.283 541.499 674.029L541 674ZM359 674L358.501 674.029C359.916 698.283 375.557 712.582 394.417 720.585C413.263 728.582 435.395 730.335 450.029 729.499L450 729L449.971 728.501C435.438 729.331 413.471 727.584 394.808 719.665C376.16 711.751 360.884 697.717 359.499 673.971L359 674ZM336 670L335.914 670.493L358.914 674.493L359 674L359.086 673.507L336.086 669.507L336 670ZM321 646L320.516 646.125C323.749 658.653 331.958 667.509 335.694 670.396L336 670L336.306 669.604C332.708 666.824 324.651 658.147 321.484 645.875L321 646ZM336 594L335.675 593.62C335.169 594.054 334.508 594.971 333.759 596.2C332.999 597.449 332.115 599.078 331.169 600.989C329.277 604.812 327.129 609.783 325.217 615.145C323.304 620.505 321.623 626.268 320.672 631.671C319.722 637.064 319.489 642.147 320.516 646.125L321 646L321.484 645.875C320.511 642.103 320.716 637.186 321.656 631.845C322.595 626.513 324.258 620.807 326.158 615.48C328.058 610.155 330.191 605.22 332.065 601.433C333.003 599.539 333.872 597.937 334.614 596.72C335.367 595.482 335.956 594.696 336.325 594.38L336 594ZM296.5 471L296.001 470.975C292.394 542.708 320.876 583.113 335.697 594.398L336 594L336.303 593.602C321.791 582.553 293.406 542.492 296.999 471.025L296.5 471ZM63 490L62.7487 490.432C178.594 557.775 267.084 505.808 296.878 471.327L296.5 471L296.122 470.673C266.582 504.859 178.606 556.625 63.2513 489.568L63 490ZM201 377L200.844 376.525C131.086 399.377 79.604 461.522 62.5719 489.742L63 490L63.4281 490.258C80.396 462.145 131.714 400.223 201.156 377.475L201 377ZM149 293L148.513 292.888C144.065 312.296 151.91 330.449 163.431 345.208C174.954 359.969 190.208 371.409 200.752 377.434L201 377L201.248 376.566C190.792 370.591 175.646 359.231 164.219 344.592C152.79 329.951 145.135 312.104 149.487 293.112L149 293ZM316 170L315.934 169.504C272.834 175.268 233.752 194.059 204.066 217.42C174.393 240.77 154.048 268.734 148.513 292.888L149 293L149.487 293.112C154.952 269.266 175.107 241.48 204.684 218.205C234.248 194.941 273.166 176.232 316.066 170.496L316 170ZM316 176H316.5V170H316H315.5V176H316ZM235 268.5L235.499 268.466C235.009 261.22 238.02 253.003 243.324 244.424C248.622 235.855 256.171 226.982 264.667 218.44C281.658 201.358 302.38 185.653 316.277 176.416L316 176L315.723 175.584C301.787 184.847 281.009 200.592 263.958 217.735C255.433 226.306 247.826 235.239 242.473 243.898C237.126 252.547 233.991 260.98 234.501 268.534L235 268.5ZM335.5 277.5L335.423 277.006C303.262 282 279.858 281.538 263.679 278.944C255.59 277.647 249.312 275.818 244.652 273.874C239.983 271.928 236.965 269.879 235.366 268.159L235 268.5L234.634 268.841C236.368 270.705 239.529 272.822 244.267 274.797C249.013 276.776 255.369 278.624 263.521 279.931C279.825 282.545 303.338 283 335.577 277.994L335.5 277.5Z" fill="current"/>
</svg>
